<svg width="14" height="14" viewBox="0 0 14 14" fill="none" xmlns="http://www.w3.org/2000/svg">
<path d="M10.0625 1.31177C10.7874 1.31177 11.375 1.89939 11.375 2.62427V12.2493C11.375 12.5987 10.9851 12.8074 10.6943 12.6135L7 10.1506L3.30566 12.6135C3.02877 12.7981 2.6622 12.6175 2.62793 12.2981L2.625 12.2493V2.62427C2.625 1.89939 3.21263 1.31177 3.9375 1.31177H10.0625ZM3.9375 2.18677C3.69588 2.18677 3.5 2.38264 3.5 2.62427V11.4319L6.75684 9.26001C6.90379 9.16204 7.09621 9.16204 7.24316 9.26001L10.5 11.4319V2.62427C10.5 2.3999 10.3309 2.21497 10.1133 2.1897L10.0625 2.18677H3.9375Z" fill="#7D7D7D"/>
</svg>
