<svg width="11" height="11" viewBox="0 0 11 11" fill="none" xmlns="http://www.w3.org/2000/svg">
<path d="M7.56055 1.37488C9.24725 1.36567 10.3125 2.40992 10.3125 4.46863C10.3125 5.78531 9.16062 7.29573 6.87793 9.04773L6.59863 9.25964C6.40889 9.40127 6.21199 9.54457 6.00781 9.68933L5.69531 9.9071C5.57763 9.98856 5.42238 9.98854 5.30469 9.9071L4.99219 9.68933C4.78801 9.54457 4.59111 9.40127 4.40137 9.25964L4.12207 9.04773C1.83942 7.29573 0.687502 5.7853 0.6875 4.46863C0.6875 2.41298 1.7475 1.37667 3.4375 1.37488C4.11485 1.37435 4.93601 1.71444 5.47363 2.20789L5.5 2.23328L5.52539 2.20886C6.03749 1.73804 6.80653 1.40795 7.4707 1.37683L7.56055 1.37488ZM7.48633 2.06531C6.87924 2.09965 6.11204 2.48475 5.7793 2.95007C5.64217 3.14147 5.35781 3.1415 5.2207 2.95007C4.87331 2.46434 4.04542 2.06181 3.4375 2.06238C2.12367 2.06391 1.37503 2.79626 1.375 4.46863C1.375 5.19791 1.88323 6.07945 2.90723 7.09656L3.09375 7.27722C3.15746 7.33789 3.22277 7.39921 3.29004 7.46082L3.49805 7.64734C3.71087 7.83519 3.93954 8.02745 4.18457 8.22351L4.43555 8.42078C4.52074 8.48697 4.60752 8.55388 4.69629 8.62097L4.96875 8.8241C5.10726 8.92603 5.24991 9.02879 5.39648 9.13269L5.5 9.20593L5.60352 9.13269L5.8916 8.92664L6.16895 8.72253C6.35025 8.58734 6.52445 8.45376 6.69141 8.32214L6.93652 8.12585C6.97645 8.09342 7.01565 8.06041 7.05469 8.0282L7.28418 7.83679C7.5077 7.64621 7.71488 7.45948 7.90625 7.27722L8.09277 7.09656C9.08666 6.10937 9.59498 5.24956 9.62402 4.53308L9.625 4.46863C9.62497 2.79342 8.87212 2.05527 7.56445 2.06238L7.48633 2.06531Z" fill="#7D7D7D"/>
<path d="M7.56055 1.37488L7.56 1.27487L7.55837 1.2749L7.56055 1.37488ZM10.3125 4.46863L10.4125 4.46863V4.46863H10.3125ZM6.87793 9.04773L6.93838 9.1274L6.93882 9.12706L6.87793 9.04773ZM6.59863 9.25964L6.65845 9.33978L6.65908 9.33931L6.59863 9.25964ZM6.00781 9.68933L6.06499 9.77138L6.06565 9.77091L6.00781 9.68933ZM5.69531 9.9071L5.75223 9.98933L5.75249 9.98915L5.69531 9.9071ZM5.30469 9.9071L5.24751 9.98915L5.24779 9.98934L5.30469 9.9071ZM4.99219 9.68933L4.93435 9.77091L4.93501 9.77137L4.99219 9.68933ZM4.40137 9.25964L4.34092 9.33931L4.34155 9.33978L4.40137 9.25964ZM4.12207 9.04773L4.06118 9.12706L4.06163 9.12739L4.12207 9.04773ZM0.6875 4.46863L0.5875 4.46863L0.5875 4.46863L0.6875 4.46863ZM3.4375 1.37488L3.43742 1.27488L3.43739 1.27488L3.4375 1.37488ZM5.47363 2.20789L5.54302 2.13583L5.54125 2.13421L5.47363 2.20789ZM5.5 2.23328L5.43064 2.30531L5.49995 2.37205L5.56931 2.30536L5.5 2.23328ZM5.52539 2.20886L5.45769 2.13523L5.45608 2.13678L5.52539 2.20886ZM7.4707 1.37683L7.46853 1.27682L7.46602 1.27694L7.4707 1.37683ZM7.48633 2.06531L7.48258 1.96536L7.48068 1.96547L7.48633 2.06531ZM5.7793 2.95007L5.86059 3.00831L5.86064 3.00824L5.7793 2.95007ZM5.2207 2.95007L5.13936 3.00825L5.13941 3.0083L5.2207 2.95007ZM3.4375 2.06238L3.43741 1.96238L3.43738 1.96238L3.4375 2.06238ZM1.375 4.46863L1.275 4.46863V4.46863H1.375ZM2.90723 7.09656L2.83675 7.16751L2.83765 7.16839L2.90723 7.09656ZM3.09375 7.27722L3.02417 7.34905L3.02478 7.34963L3.09375 7.27722ZM3.29004 7.46082L3.2225 7.53457L3.22328 7.53527L3.29004 7.46082ZM3.49805 7.64734L3.43128 7.72179L3.43187 7.72231L3.49805 7.64734ZM4.18457 8.22351L4.12209 8.30159L4.12277 8.30213L4.18457 8.22351ZM4.43555 8.42078L4.37375 8.4994L4.37419 8.49974L4.43555 8.42078ZM4.69629 8.62097L4.636 8.70075L4.63652 8.70114L4.69629 8.62097ZM4.96875 8.8241L4.90898 8.90427L4.90948 8.90464L4.96875 8.8241ZM5.39648 9.13269L5.33865 9.21427L5.33873 9.21432L5.39648 9.13269ZM5.5 9.20593L5.44224 9.28757L5.5 9.32843L5.55776 9.28757L5.5 9.20593ZM5.60352 9.13269L5.66128 9.21432L5.66169 9.21403L5.60352 9.13269ZM5.8916 8.92664L5.94978 9.00798L5.95087 9.00718L5.8916 8.92664ZM6.16895 8.72253L6.22822 8.80308L6.22872 8.8027L6.16895 8.72253ZM6.69141 8.32214L6.75332 8.40068L6.75391 8.4002L6.69141 8.32214ZM6.93652 8.12585L6.99903 8.20391L6.99958 8.20347L6.93652 8.12585ZM7.05469 8.0282L7.11834 8.10533L7.11874 8.10499L7.05469 8.0282ZM7.28418 7.83679L7.34823 7.91359L7.34906 7.91289L7.28418 7.83679ZM7.90625 7.27722L7.97522 7.34964L7.97582 7.34905L7.90625 7.27722ZM8.09277 7.09656L8.16235 7.16839L8.16324 7.16751L8.09277 7.09656ZM9.62402 4.53308L9.72397 4.53713L9.72401 4.5346L9.62402 4.53308ZM9.625 4.46863L9.725 4.47014L9.725 4.46863L9.625 4.46863ZM7.56445 2.06238L7.56391 1.96233L7.56071 1.96245L7.56445 2.06238ZM7.56055 1.37488L7.56109 1.47488C8.38325 1.47039 9.04168 1.72209 9.49553 2.21409C9.95048 2.70727 10.2125 3.45557 10.2125 4.46863H10.3125H10.4125C10.4125 3.42297 10.1419 2.6198 9.64254 2.07848C9.14209 1.53597 8.42454 1.27016 7.56 1.27488L7.56055 1.37488ZM10.3125 4.46863L10.2125 4.46863C10.2125 5.09729 9.93738 5.78324 9.37134 6.53477C8.80557 7.28597 7.95464 8.09528 6.81704 8.9684L6.87793 9.04773L6.93882 9.12706C8.08391 8.24818 8.95026 7.42629 9.5311 6.6551C10.1117 5.88425 10.4125 5.15665 10.4125 4.46863L10.3125 4.46863ZM6.87793 9.04773L6.81748 8.96806L6.53819 9.17998L6.59863 9.25964L6.65908 9.33931L6.93837 9.12739L6.87793 9.04773ZM6.59863 9.25964L6.53882 9.17951C6.34974 9.32064 6.1535 9.46346 5.94997 9.60775L6.00781 9.68933L6.06565 9.77091C6.27049 9.62568 6.46804 9.4819 6.65845 9.33978L6.59863 9.25964ZM6.00781 9.68933L5.95064 9.60729L5.63814 9.82506L5.69531 9.9071L5.75249 9.98915L6.06499 9.77137L6.00781 9.68933ZM5.69531 9.9071L5.6384 9.82488C5.55497 9.88263 5.44506 9.88263 5.36159 9.82487L5.30469 9.9071L5.24779 9.98934C5.39971 10.0945 5.60029 10.0945 5.75223 9.98933L5.69531 9.9071ZM5.30469 9.9071L5.36186 9.82506L5.04936 9.60729L4.99219 9.68933L4.93501 9.77137L5.24751 9.98915L5.30469 9.9071ZM4.99219 9.68933L5.05003 9.60775C4.8465 9.46345 4.65026 9.32064 4.46118 9.17951L4.40137 9.25964L4.34155 9.33978C4.53196 9.48191 4.72951 9.62568 4.93435 9.77091L4.99219 9.68933ZM4.40137 9.25964L4.46181 9.17998L4.18252 8.96806L4.12207 9.04773L4.06163 9.12739L4.34092 9.33931L4.40137 9.25964ZM4.12207 9.04773L4.18296 8.9684C3.04538 8.09528 2.19445 7.28597 1.62867 6.53477C1.06263 5.78323 0.787501 5.09729 0.7875 4.46863L0.6875 4.46863L0.5875 4.46863C0.587501 5.15665 0.888332 5.88425 1.46891 6.6551C2.04975 7.42629 2.91611 8.24818 4.06118 9.12706L4.12207 9.04773ZM0.6875 4.46863H0.7875C0.7875 3.45706 1.04823 2.71153 1.50225 2.21936C1.95526 1.72831 2.61337 1.47575 3.43761 1.47488L3.4375 1.37488L3.43739 1.27488C2.57163 1.2758 1.85475 1.5423 1.35525 2.08375C0.856774 2.6241 0.5875 3.42455 0.5875 4.46863H0.6875ZM3.4375 1.37488L3.43758 1.47488C4.08725 1.47437 4.88484 1.80321 5.40601 2.28156L5.47363 2.20789L5.54125 2.13421C4.98717 1.62566 4.14245 1.27433 3.43742 1.27488L3.4375 1.37488ZM5.47363 2.20789L5.40427 2.27992L5.43064 2.30531L5.5 2.23328L5.56936 2.16124L5.543 2.13585L5.47363 2.20789ZM5.5 2.23328L5.56931 2.30536L5.5947 2.28095L5.52539 2.20886L5.45608 2.13678L5.43069 2.16119L5.5 2.23328ZM5.52539 2.20886L5.59307 2.28248C6.08889 1.82662 6.83596 1.50669 7.47538 1.47672L7.4707 1.37683L7.46602 1.27694C6.7771 1.30922 5.98608 1.64946 5.45771 2.13525L5.52539 2.20886ZM7.4707 1.37683L7.47288 1.47681L7.56272 1.47485L7.56055 1.37488L7.55837 1.2749L7.46853 1.27685L7.4707 1.37683ZM7.48633 2.06531L7.48068 1.96547C7.16022 1.98359 6.80304 2.0935 6.48427 2.2571C6.16605 2.42043 5.8765 2.64222 5.69795 2.89191L5.7793 2.95007L5.86064 3.00824C6.01483 2.7926 6.27525 2.58918 6.57559 2.43504C6.87538 2.28117 7.20534 2.18136 7.49198 2.16515L7.48633 2.06531ZM5.7793 2.95007L5.69801 2.89183C5.60076 3.02757 5.39921 3.02756 5.302 2.89184L5.2207 2.95007L5.13941 3.0083C5.31641 3.25544 5.68358 3.25538 5.86059 3.00831L5.7793 2.95007ZM5.2207 2.95007L5.30204 2.8919C5.11569 2.63135 4.80661 2.4 4.4711 2.23421C4.13529 2.06827 3.761 1.96207 3.43741 1.96238L3.4375 2.06238L3.43759 2.16238C3.72192 2.16211 4.06554 2.25689 4.3825 2.41351C4.69976 2.57028 4.97832 2.78307 5.13936 3.00825L5.2207 2.95007ZM3.4375 2.06238L3.43738 1.96238C2.7621 1.96317 2.21521 2.15228 1.83909 2.57222C1.46483 2.99008 1.27502 3.61958 1.275 4.46863L1.375 4.46863L1.475 4.46863C1.47502 3.64531 1.65954 3.07245 1.98807 2.70566C2.31473 2.34094 2.79908 2.16312 3.43762 2.16238L3.4375 2.06238ZM1.375 4.46863H1.275C1.275 5.24056 1.80952 6.14718 2.83675 7.16751L2.90723 7.09656L2.9777 7.02561C1.95694 6.01171 1.475 5.15526 1.475 4.46863H1.375ZM2.90723 7.09656L2.83765 7.16839L3.02418 7.34905L3.09375 7.27722L3.16332 7.20539L2.9768 7.02473L2.90723 7.09656ZM3.09375 7.27722L3.02478 7.34963C3.08884 7.41064 3.15464 7.47242 3.2225 7.53456L3.29004 7.46082L3.35758 7.38707C3.2909 7.32601 3.22607 7.26515 3.16272 7.20481L3.09375 7.27722ZM3.29004 7.46082L3.22328 7.53527L3.43129 7.72179L3.49805 7.64734L3.56481 7.57289L3.3568 7.38636L3.29004 7.46082ZM3.49805 7.64734L3.43187 7.72231C3.64595 7.91127 3.87587 8.10458 4.12209 8.30159L4.18457 8.22351L4.24705 8.14543C4.00322 7.95033 3.77578 7.7591 3.56422 7.57237L3.49805 7.64734ZM4.18457 8.22351L4.12277 8.30213L4.37375 8.4994L4.43555 8.42078L4.49734 8.34216L4.24637 8.14489L4.18457 8.22351ZM4.43555 8.42078L4.37419 8.49974C4.45957 8.56608 4.54673 8.63329 4.636 8.70075L4.69629 8.62097L4.75658 8.54119C4.6683 8.47448 4.58191 8.40787 4.4969 8.34181L4.43555 8.42078ZM4.69629 8.62097L4.63652 8.70114L4.90898 8.90427L4.96875 8.8241L5.02852 8.74392L4.75606 8.5408L4.69629 8.62097ZM4.96875 8.8241L4.90948 8.90464C5.04854 9.00698 5.19168 9.11009 5.33865 9.21427L5.39648 9.13269L5.45432 9.05111C5.30814 8.94749 5.16597 8.84508 5.02802 8.74356L4.96875 8.8241ZM5.39648 9.13269L5.33873 9.21432L5.44224 9.28757L5.5 9.20593L5.55776 9.1243L5.45424 9.05106L5.39648 9.13269ZM5.5 9.20593L5.55776 9.28757L5.66127 9.21432L5.60352 9.13269L5.54576 9.05106L5.44224 9.1243L5.5 9.20593ZM5.60352 9.13269L5.66169 9.21403L5.94978 9.00797L5.8916 8.92664L5.83343 8.8453L5.54534 9.05135L5.60352 9.13269ZM5.8916 8.92664L5.95087 9.00718L6.22822 8.80308L6.16895 8.72253L6.10967 8.64199L5.83233 8.84609L5.8916 8.92664ZM6.16895 8.72253L6.22872 8.8027C6.41073 8.66699 6.58564 8.53286 6.75332 8.40068L6.69141 8.32214L6.6295 8.24361C6.46326 8.37466 6.28978 8.5077 6.10917 8.64237L6.16895 8.72253ZM6.69141 8.32214L6.75391 8.4002L6.99903 8.20391L6.93652 8.12585L6.87402 8.0478L6.6289 8.24409L6.69141 8.32214ZM6.93652 8.12585L6.99958 8.20347C7.03978 8.17081 7.08044 8.1366 7.11834 8.10533L7.05469 8.0282L6.99104 7.95107C6.95087 7.98422 6.91312 8.01602 6.87347 8.04824L6.93652 8.12585ZM7.05469 8.0282L7.11874 8.10499L7.34823 7.91359L7.28418 7.83679L7.22013 7.76L6.99064 7.9514L7.05469 8.0282ZM7.28418 7.83679L7.34906 7.91289C7.5739 7.72118 7.78245 7.53322 7.97522 7.34964L7.90625 7.27722L7.83728 7.20481C7.64731 7.38573 7.44149 7.57125 7.2193 7.7607L7.28418 7.83679ZM7.90625 7.27722L7.97582 7.34905L8.16235 7.16839L8.09277 7.09656L8.0232 7.02473L7.83668 7.20539L7.90625 7.27722ZM8.09277 7.09656L8.16324 7.16751C9.16066 6.17682 9.69328 5.29361 9.72394 4.53713L9.62402 4.53308L9.52411 4.52903C9.49668 5.20552 9.01266 6.04192 8.0223 7.02561L8.09277 7.09656ZM9.62402 4.53308L9.72401 4.5346L9.72499 4.47014L9.625 4.46863L9.52501 4.46711L9.52403 4.53157L9.62402 4.53308ZM9.625 4.46863L9.725 4.46863C9.72498 3.6181 9.5341 2.9865 9.15961 2.56795C8.78317 2.14722 8.2366 1.95872 7.56391 1.96238L7.56445 2.06238L7.565 2.16238C8.19997 2.15892 8.68366 2.33595 9.01056 2.70131C9.33943 3.06887 9.52498 3.64394 9.525 4.46863L9.625 4.46863ZM7.56445 2.06238L7.56071 1.96245L7.48258 1.96538L7.48633 2.06531L7.49008 2.16524L7.5682 2.16231L7.56445 2.06238Z" fill="#7D7D7D"/>
</svg>
