<svg width="16" height="16" viewBox="0 0 16 16" fill="none" xmlns="http://www.w3.org/2000/svg">
<g filter="url(#filter0_d_12_422)">
<path d="M8.03553 0.146504C7.84027 -0.0487585 7.52369 -0.0487585 7.32842 0.146504L4.14644 3.32848C3.95118 3.52375 3.95118 3.84033 4.14644 4.03559C4.3417 4.23085 4.65829 4.23085 4.85355 4.03559L7.68198 1.20716L10.5104 4.03559C10.7057 4.23085 11.0222 4.23085 11.2175 4.03559C11.4128 3.84033 11.4128 3.52375 11.2175 3.32848L8.03553 0.146504ZM7.68198 7.43811H8.18198V5.21793H7.68198H7.18198V7.43811H7.68198ZM7.68198 5.21793H8.18198L8.18198 0.500057H7.68198H7.18198L7.18198 5.21793H7.68198Z" fill="#7D7D7D"/>
</g>
<line x1="3.18198" y1="5.57959" x2="3.18198" y2="12.5796" stroke="#7D7D7D"/>
<line x1="2.68198" y1="5.5752" x2="6.68198" y2="5.5752" stroke="#7D7D7D"/>
<path d="M8.68198 5.5752H12.682" stroke="#7D7D7D"/>
<path d="M2.68198 12.5H7.68198H12.682" stroke="#7D7D7D"/>
<line x1="12.182" y1="5.5" x2="12.182" y2="12.5" stroke="#7D7D7D"/>
<defs>
<filter id="filter0_d_12_422" x="0" y="0" width="15.364" height="15.4381" filterUnits="userSpaceOnUse" color-interpolation-filters="sRGB">
<feFlood flood-opacity="0" result="BackgroundImageFix"/>
<feColorMatrix in="SourceAlpha" type="matrix" values="0 0 0 0 0 0 0 0 0 0 0 0 0 0 0 0 0 0 127 0" result="hardAlpha"/>
<feOffset dy="4"/>
<feGaussianBlur stdDeviation="2"/>
<feComposite in2="hardAlpha" operator="out"/>
<feColorMatrix type="matrix" values="0 0 0 0 0 0 0 0 0 0 0 0 0 0 0 0 0 0 0.25 0"/>
<feBlend mode="normal" in2="BackgroundImageFix" result="effect1_dropShadow_12_422"/>
<feBlend mode="normal" in="SourceGraphic" in2="effect1_dropShadow_12_422" result="shape"/>
</filter>
</defs>
</svg>
