<svg width="24" height="24" viewBox="0 0 24 24" fill="none" xmlns="http://www.w3.org/2000/svg">
<path fill-rule="evenodd" clip-rule="evenodd" d="M7 2.06H17C18.6917 2.09825 20.0335 3.49818 20 5.19V19.87C20.0042 20.6858 19.5311 21.4288 18.79 21.77C18.5375 21.8798 18.2654 21.9376 17.99 21.94C17.5036 21.937 17.036 21.7514 16.68 21.42L12 17.16L7.32 21.42C6.74336 21.9345 5.92189 22.0708 5.21 21.77C4.46896 21.4288 3.99582 20.6858 4 19.87V5.19C3.9665 3.49818 5.30829 2.09825 7 2.06ZM13.33 15.68L18 19.94V5.19C18.0287 4.60432 17.5848 4.10273 17 4.06H7C6.41518 4.10273 5.9713 4.60432 6 5.19V19.87L10.63 15.68C11.3942 14.9808 12.5658 14.9808 13.33 15.68Z" fill="#7D7D7D"/>
</svg>
