<svg width="11" height="11" viewBox="0 0 11 11" fill="none" xmlns="http://www.w3.org/2000/svg">
<path d="M5.49951 1.03125C7.77769 1.03125 9.62451 2.87808 9.62451 5.15625C9.62451 7.43442 7.77769 9.28125 5.49951 9.28125C4.87871 9.28118 4.27724 9.14317 3.72998 8.88281L3.604 8.82031L1.80225 9.27051C1.56309 9.3303 1.34565 9.12788 1.37842 8.8916L1.38525 8.85449L1.83545 7.05176C1.55619 6.51259 1.39852 5.91653 1.37744 5.29883L1.37451 5.15625C1.37451 2.87823 3.22156 1.03151 5.49951 1.03125ZM5.49951 1.71875C3.60125 1.71901 2.06201 3.25793 2.06201 5.15625C2.06201 5.75391 2.21529 6.32873 2.50146 6.83789C2.54436 6.91436 2.55593 7.00477 2.53467 7.08984L2.19092 8.46484L3.56689 8.12109C3.63765 8.10351 3.7119 8.10868 3.77881 8.13574L3.81787 8.15527C4.32695 8.44144 4.90195 8.59367 5.49951 8.59375C7.39799 8.59375 8.93701 7.05473 8.93701 5.15625C8.93701 3.25777 7.39799 1.71875 5.49951 1.71875Z" fill="#7D7D7D"/>
<path d="M5.49951 1.03125L5.49951 0.93125L5.4995 0.93125L5.49951 1.03125ZM5.49951 9.28125L5.4995 9.38125H5.49951V9.28125ZM3.72998 8.88281L3.68553 8.97241L3.68702 8.97311L3.72998 8.88281ZM3.604 8.82031L3.64845 8.73073L3.61547 8.71437L3.57976 8.7233L3.604 8.82031ZM1.80225 9.27051L1.778 9.17349L1.77799 9.17349L1.80225 9.27051ZM1.37842 8.8916L1.27998 8.87347L1.27937 8.87787L1.37842 8.8916ZM1.38525 8.85449L1.28804 8.83022L1.28691 8.83638L1.38525 8.85449ZM1.83545 7.05176L1.93247 7.07599L1.94163 7.03932L1.92425 7.00577L1.83545 7.05176ZM1.37744 5.29883L1.27745 5.30088L1.2775 5.30224L1.37744 5.29883ZM1.37451 5.15625H1.27449L1.27453 5.1583L1.37451 5.15625ZM5.49951 1.71875L5.49951 1.61875L5.4995 1.61875L5.49951 1.71875ZM2.50146 6.83789L2.58868 6.78897L2.58864 6.78889L2.50146 6.83789ZM2.53467 7.08984L2.63168 7.1141L2.63168 7.11409L2.53467 7.08984ZM2.19092 8.46484L2.0939 8.44059L2.05349 8.60225L2.21516 8.56186L2.19092 8.46484ZM3.56689 8.12109L3.54277 8.02405L3.54266 8.02408L3.56689 8.12109ZM3.77881 8.13574L3.82367 8.04602L3.8163 8.04304L3.77881 8.13574ZM3.81787 8.15527L3.86693 8.068L3.86259 8.06583L3.81787 8.15527ZM5.49951 8.59375L5.4995 8.69375H5.49951V8.59375ZM5.49951 1.03125V1.13125C7.72246 1.13125 9.52451 2.9333 9.52451 5.15625H9.62451H9.72451C9.72451 2.82285 7.83291 0.93125 5.49951 0.93125V1.03125ZM9.62451 5.15625H9.52451C9.52451 7.3792 7.72246 9.18125 5.49951 9.18125V9.28125V9.38125C7.83291 9.38125 9.72451 7.48965 9.72451 5.15625H9.62451ZM5.49951 9.28125L5.49952 9.18125C4.89363 9.18118 4.30683 9.04651 3.77294 8.79251L3.72998 8.88281L3.68702 8.97311C4.24764 9.23983 4.86378 9.38118 5.4995 9.38125L5.49951 9.28125ZM3.72998 8.88281L3.77442 8.79323L3.64845 8.73073L3.604 8.82031L3.55956 8.90989L3.68554 8.97239L3.72998 8.88281ZM3.604 8.82031L3.57976 8.7233L1.778 9.17349L1.80225 9.27051L1.82649 9.36753L3.62825 8.91733L3.604 8.82031ZM1.80225 9.27051L1.77799 9.17349C1.60863 9.21584 1.45428 9.07253 1.47747 8.90534L1.37842 8.8916L1.27937 8.87787C1.23702 9.18322 1.51755 9.44476 1.8265 9.36752L1.80225 9.27051ZM1.37842 8.8916L1.47676 8.90972L1.4836 8.87261L1.38525 8.85449L1.28691 8.83638L1.28007 8.87349L1.37842 8.8916ZM1.38525 8.85449L1.48227 8.87872L1.93247 7.07599L1.83545 7.05176L1.73843 7.02753L1.28823 8.83026L1.38525 8.85449ZM1.83545 7.05176L1.92425 7.00577C1.65179 6.47975 1.49795 5.89823 1.47738 5.29542L1.37744 5.29883L1.2775 5.30224C1.29908 5.93483 1.46058 6.54543 1.74665 7.09775L1.83545 7.05176ZM1.37744 5.29883L1.47742 5.29677L1.47449 5.1542L1.37451 5.15625L1.27453 5.1583L1.27746 5.30088L1.37744 5.29883ZM1.37451 5.15625H1.47451C1.47451 2.93347 3.27677 1.1315 5.49952 1.13125L5.49951 1.03125L5.4995 0.93125C3.16634 0.931513 1.27451 2.82299 1.27451 5.15625H1.37451ZM5.49951 1.71875L5.4995 1.61875C3.54603 1.61901 1.96201 3.20269 1.96201 5.15625H2.06201H2.16201C2.16201 3.31317 3.65647 1.819 5.49953 1.81875L5.49951 1.71875ZM2.06201 5.15625H1.96201C1.96201 5.77119 2.11977 6.36287 2.41429 6.88689L2.50146 6.83789L2.58864 6.78889C2.31082 6.29459 2.16201 5.73663 2.16201 5.15625H2.06201ZM2.50146 6.83789L2.41425 6.88681C2.44445 6.94065 2.45284 7.00483 2.43765 7.0656L2.53467 7.08984L2.63168 7.11409C2.65902 7.00471 2.64428 6.88808 2.58868 6.78897L2.50146 6.83789ZM2.53467 7.08984L2.43765 7.06559L2.0939 8.44059L2.19092 8.46484L2.28793 8.4891L2.63168 7.1141L2.53467 7.08984ZM2.19092 8.46484L2.21516 8.56186L3.59113 8.21811L3.56689 8.12109L3.54266 8.02408L2.16668 8.36783L2.19092 8.46484ZM3.56689 8.12109L3.59101 8.21814C3.64146 8.2056 3.69413 8.20936 3.74131 8.22845L3.77881 8.13574L3.8163 8.04304C3.72967 8.008 3.63385 8.00141 3.54277 8.02405L3.56689 8.12109ZM3.77881 8.13574L3.73409 8.22518L3.77315 8.24472L3.81787 8.15527L3.86259 8.06583L3.82353 8.0463L3.77881 8.13574ZM3.81787 8.15527L3.76887 8.24244C4.29292 8.53703 4.88479 8.69367 5.4995 8.69375L5.49951 8.59375L5.49953 8.49375C4.91911 8.49367 4.36098 8.34585 3.86687 8.0681L3.81787 8.15527ZM5.49951 8.59375V8.69375C7.45322 8.69375 9.03701 7.10996 9.03701 5.15625H8.93701H8.83701C8.83701 6.9995 7.34276 8.49375 5.49951 8.49375V8.59375ZM8.93701 5.15625H9.03701C9.03701 3.20254 7.45322 1.61875 5.49951 1.61875V1.71875V1.81875C7.34276 1.81875 8.83701 3.313 8.83701 5.15625H8.93701Z" fill="#7D7D7D"/>
<path d="M3.78125 6.1875C3.5914 6.1875 3.4375 6.0336 3.4375 5.84375C3.4375 5.66746 3.5702 5.52217 3.74116 5.50231L3.78125 5.5H5.84375C6.0336 5.5 6.1875 5.6539 6.1875 5.84375C6.1875 6.02004 6.0548 6.16533 5.88384 6.18519L5.84375 6.1875H3.78125Z" fill="#7D7D7D" stroke="#7D7D7D" stroke-width="0.2"/>
<path d="M3.78125 4.8125C3.5914 4.8125 3.4375 4.6586 3.4375 4.46875C3.4375 4.29246 3.5702 4.14717 3.74116 4.12731L3.78125 4.125L7.21875 4.125C7.4086 4.125 7.5625 4.2789 7.5625 4.46875C7.5625 4.64504 7.4298 4.79033 7.25884 4.81019L7.21875 4.8125H3.78125Z" fill="#7D7D7D" stroke="#7D7D7D" stroke-width="0.2"/>
</svg>
