<svg width="24" height="24" viewBox="0 0 24 24" fill="none" xmlns="http://www.w3.org/2000/svg">
<path fill-rule="evenodd" clip-rule="evenodd" d="M17.3199 3.22C19.5154 3.84031 21.2239 5.56782 21.8199 7.77C22.3328 9.8791 21.6315 12.0985 19.9999 13.53L12.7299 20.71C12.3411 21.0911 11.7188 21.0911 11.3299 20.71L3.99992 13.53C2.3683 12.0985 1.66703 9.8791 2.17992 7.77C2.77593 5.56782 4.48446 3.84031 6.67992 3.22C8.5256 2.7141 10.5019 3.11902 11.9999 4.31C13.4979 3.11902 15.4742 2.7141 17.3199 3.22ZM11.9999 18.6L18.6299 12.1C19.7173 11.1459 20.1705 9.65832 19.7999 8.26C19.3751 6.75631 18.2022 5.57965 16.6999 5.15C15.2226 4.76059 13.6512 5.22277 12.6199 6.35C12.2311 6.73114 11.6088 6.73114 11.2199 6.35C10.4384 5.52013 9.35933 5.03456 8.21992 5C7.8814 5.00534 7.54511 5.05579 7.21992 5.15C5.71761 5.57965 4.54473 6.75631 4.11992 8.26C3.76818 9.67371 4.25338 11.1642 5.36992 12.1L11.9999 18.6Z" fill="#6B6B6B"/>
</svg>
