<svg width="24" height="24" viewBox="0 0 24 24" fill="none" xmlns="http://www.w3.org/2000/svg">
<path fill-rule="evenodd" clip-rule="evenodd" d="M20 7.74L21.66 9.25C22.0737 9.61476 22.114 10.2456 21.75 10.66C21.3852 11.0737 20.7544 11.114 20.34 10.75L20 10.45V19C20 20.6569 18.6569 22 17 22H14C13.4477 22 13 21.5523 13 21V16C13.0042 15.7395 12.899 15.4892 12.71 15.31C12.5246 15.1155 12.2687 15.0037 12 15C11.4477 15 11 15.4477 11 16V21C11 21.5523 10.5523 22 10 22H7C5.34314 22 4 20.6569 4 19V10.45L3.66 10.75C3.24308 11.0858 2.63566 11.0337 2.28201 10.6318C1.92835 10.23 1.95391 9.62084 2.34 9.25L4 7.74L4.85 7L11.34 1.25C11.7175 0.918355 12.2825 0.918355 12.66 1.25L19.15 7L20 7.74ZM17 20C17.5523 20 18 19.5523 18 19V8.67L12 3.34L6 8.67V19C6 19.5523 6.44771 20 7 20H9V16C9 14.3431 10.3431 13 12 13C13.6569 13 15 14.3431 15 16V20H17Z" fill="#7D7D7D"/>
</svg>
