<svg width="30" height="30" viewBox="0 0 30 30" fill="none" xmlns="http://www.w3.org/2000/svg">
<path fill-rule="evenodd" clip-rule="evenodd" d="M11.5293 4.72002C11.9486 3.31178 13.1784 1.875 14.9999 1.875C16.8219 1.875 18.0505 3.31184 18.473 4.71742C18.4751 4.72004 18.4779 4.72335 18.4816 4.72715C18.4902 4.73618 18.5 4.74449 18.5093 4.75093C18.5164 4.75583 18.5206 4.75795 18.5211 4.7582C19.5815 5.19477 20.8295 5.89214 21.8057 7.16893C22.7897 8.45598 23.4298 10.2427 23.4298 12.7354C23.4298 15.2207 23.692 16.5836 24.0781 17.5192C24.4167 18.3395 24.8619 18.8787 25.4954 19.646C25.5879 19.7581 25.6845 19.875 25.7853 19.9984L25.7855 19.9987C26.9531 21.4289 25.8506 23.4375 24.0521 23.4375H5.95363C4.15842 23.4375 3.03733 21.4391 4.21455 19.9984C4.31544 19.875 4.41205 19.7579 4.50464 19.6458C5.13805 18.8786 5.58331 18.3393 5.92217 17.5189C6.30865 16.5832 6.57149 15.2203 6.57296 12.7354M11.5293 4.72002C11.5277 4.72193 11.5256 4.72421 11.5232 4.72677C11.5152 4.73504 11.5058 4.74303 11.4963 4.74951C11.4876 4.75553 11.4824 4.75788 11.4824 4.75789L11.4818 4.75813C10.421 5.19496 9.1725 5.89101 8.19627 7.16749C7.21234 8.45405 6.57305 10.2405 6.57296 12.7348M14.9999 3.75C14.2781 3.75 13.5888 4.3519 13.322 5.26967L13.3214 5.27201C13.1493 5.8581 12.6731 6.29553 12.1958 6.49187C12.1957 6.4919 12.1956 6.49193 12.1955 6.49196C11.3 6.86078 10.3844 7.39285 9.68564 8.30653C8.9946 9.21011 8.44796 10.5759 8.44796 12.7354V12.7359C8.44647 15.3277 8.1767 16.972 7.65516 18.2347C7.20143 19.3332 6.56805 20.0965 5.93962 20.8539C5.8483 20.964 5.75708 21.0739 5.66653 21.1848L5.66647 21.1848C5.62916 21.2305 5.61872 21.2679 5.61616 21.2962C5.61327 21.3281 5.61928 21.3663 5.63936 21.4056C5.6742 21.4738 5.76094 21.5625 5.95363 21.5625H24.0521C24.2378 21.5625 24.3231 21.4768 24.3587 21.4067C24.3967 21.3316 24.392 21.2569 24.3333 21.1848C24.2428 21.074 24.1516 20.9641 24.0604 20.8541C23.4319 20.0967 22.7984 19.3332 22.3449 18.2345C21.8238 16.9716 21.5548 15.3272 21.5548 12.7354C21.5548 10.5786 21.0078 9.21238 20.3162 8.30773C19.6167 7.39293 18.7008 6.85983 17.8071 6.49191C17.3244 6.29339 16.8532 5.84982 16.6822 5.2735L16.6815 5.27112C16.4113 4.35145 15.7217 3.75 14.9999 3.75Z" fill="#7D7D7D"/>
<path fill-rule="evenodd" clip-rule="evenodd" d="M11.25 21.5625C11.7678 21.5625 12.1875 21.9822 12.1875 22.5V23.4375C12.1875 24.1834 12.4838 24.8988 13.0113 25.4262C13.5387 25.9537 14.2541 26.25 15 26.25C15.7459 26.25 16.4613 25.9537 16.9887 25.4262C17.5162 24.8988 17.8125 24.1834 17.8125 23.4375V22.5C17.8125 21.9822 18.2322 21.5625 18.75 21.5625C19.2678 21.5625 19.6875 21.9822 19.6875 22.5V23.4375C19.6875 24.6807 19.1936 25.873 18.3146 26.7521C17.4355 27.6311 16.2432 28.125 15 28.125C13.7568 28.125 12.5645 27.6311 11.6854 26.7521C10.8064 25.873 10.3125 24.6807 10.3125 23.4375V22.5C10.3125 21.9822 10.7322 21.5625 11.25 21.5625Z" fill="#7D7D7D"/>
</svg>
