<svg width="14" height="14" viewBox="0 0 14 14" fill="none" xmlns="http://www.w3.org/2000/svg">
<path d="M7 1.3125C10.1411 1.3125 12.6875 3.85888 12.6875 7C12.6875 10.1411 10.1411 12.6875 7 12.6875C3.85888 12.6875 1.3125 10.1411 1.3125 7C1.3125 3.85888 3.85888 1.3125 7 1.3125ZM7 2.1875C4.34213 2.1875 2.1875 4.34213 2.1875 7C2.1875 9.65787 4.34213 11.8125 7 11.8125C9.65787 11.8125 11.8125 9.65787 11.8125 7C11.8125 4.34213 9.65787 2.1875 7 2.1875Z" fill="#7D7D7D"/>
<path d="M4.94064 4.94064C5.09835 4.78293 5.34652 4.7708 5.51814 4.90425L5.55936 4.94064L9.05936 8.44064C9.23021 8.6115 9.23021 8.8885 9.05936 9.05936C8.90165 9.21707 8.65348 9.2292 8.48186 9.09575L8.44064 9.05936L4.94064 5.55936C4.76979 5.3885 4.76979 5.1115 4.94064 4.94064Z" fill="#7D7D7D"/>
<path d="M8.44064 4.94064C8.6115 4.76979 8.8885 4.76979 9.05936 4.94064C9.21707 5.09835 9.2292 5.34652 9.09575 5.51814L9.05936 5.55936L5.55936 9.05936C5.3885 9.23021 5.1115 9.23021 4.94064 9.05936C4.78293 8.90165 4.7708 8.65348 4.90425 8.48186L4.94064 8.44064L8.44064 4.94064Z" fill="#7D7D7D"/>
</svg>
