<!DOCTYPE svg PUBLIC "-//W3C//DTD SVG 1.1//EN" "http://www.w3.org/Graphics/SVG/1.1/DTD/svg11.dtd">
<!-- Uploaded to: SVG Repo, www.svgrepo.com, Transformed by: SVG Repo Mixer Tools -->
<svg fill="#7d7d7d" width="800px" height="800px" viewBox="0 0 50 50" xmlns="http://www.w3.org/2000/svg" stroke="#7d7d7d" transform="matrix(1, 0, 0, 1, 0, 0)">
<g id="SVGRepo_bgCarrier" stroke-width="0"/>
<g id="SVGRepo_tracerCarrier" stroke-linecap="round" stroke-linejoin="round"/>
<g id="SVGRepo_iconCarrier">
<path d="M30.3 13.7L25 8.4l-5.3 5.3-1.4-1.4L25 5.6l6.7 6.7z"/>
<path d="M24 7h2v21h-2z"/>
<path d="M35 40H15c-1.7 0-3-1.3-3-3V19c0-1.7 1.3-3 3-3h7v2h-7c-.6 0-1 .4-1 1v18c0 .6.4 1 1 1h20c.6 0 1-.4 1-1V19c0-.6-.4-1-1-1h-7v-2h7c1.7 0 3 1.3 3 3v18c0 1.7-1.3 3-3 3z"/>
</g>
</svg>